<svg width="24" height="24" viewBox="0 0 24 24" fill="none" xmlns="http://www.w3.org/2000/svg">
<g clip-path="url(#clip0_2_5)">
<rect width="24" height="24" rx="4" fill="#FF0D1A"/>
<path d="M12 8L18 5L12 2V12" stroke="black" stroke-width="2" stroke-linecap="round" stroke-linejoin="round"/>
<path d="M8 11.99L2.5 15.13C2.3461 15.2172 2.2181 15.3437 2.12904 15.4965C2.03998 15.6494 1.99305 15.8231 1.99305 16C1.99305 16.1769 2.03998 16.3506 2.12904 16.5035C2.2181 16.6563 2.3461 16.7828 2.5 16.87L11 21.73C11.304 21.9055 11.6489 21.998 12 21.998C12.3511 21.998 12.696 21.9055 13 21.73L21.5 16.87C21.6539 16.7828 21.7819 16.6563 21.871 16.5035C21.96 16.3506 22.007 16.1769 22.007 16C22.007 15.8231 21.96 15.6494 21.871 15.4965C21.7819 15.3437 21.6539 15.2172 21.5 15.13L16 12" stroke="black" stroke-width="2" stroke-linecap="round" stroke-linejoin="round"/>
<path d="M6.49 12.85L17.51 19.15" stroke="black" stroke-width="2" stroke-linecap="round" stroke-linejoin="round"/>
<path d="M17.51 12.85L6.5 19.15" stroke="black" stroke-width="2" stroke-linecap="round" stroke-linejoin="round"/>
</g>
<defs>
<clipPath id="clip0_2_5">
<rect width="24" height="24" fill="white"/>
</clipPath>
</defs>
</svg>
