<svg width="57.324" height="71.095" viewBox="0 0 57.324 71.095" xmlns="http://www.w3.org/2000/svg">
  <path
    d="M 38.965 71.095 L 26.416 45.997 L 17.139 45.997 L 17.139 71.095 L 0 71.095 L 0 0.001 L 27.979 0.001 A 46.032 46.032 0 0 1 35.684 0.605 Q 42.964 1.843 47.754 5.616 A 18.281 18.281 0 0 1 54.709 18.394 A 26.62 26.62 0 0 1 54.883 21.485 Q 54.883 27.747 52.745 32.202 A 17.397 17.397 0 0 1 51.88 33.79 A 18.735 18.735 0 0 1 47.122 38.93 A 26.547 26.547 0 0 1 42.48 41.7 L 57.324 70.362 L 57.324 71.095 L 38.965 71.095 Z M 17.139 13.233 L 17.139 32.764 L 27.979 32.764 A 14.797 14.797 0 0 0 30.794 32.514 Q 32.39 32.204 33.625 31.511 A 7.312 7.312 0 0 0 35.327 30.201 Q 37.651 27.785 37.785 23.568 A 16.452 16.452 0 0 0 37.793 23.048 Q 37.793 18.458 35.303 15.845 A 7.937 7.937 0 0 0 31.763 13.734 Q 30.513 13.358 29.009 13.265 A 16.527 16.527 0 0 0 27.979 13.233 L 17.139 13.233 Z"
    vector-effect="non-scaling-stroke" />
  <style>
    path { fill: #000; }
    @media (prefers-color-scheme: dark) {
    path { fill: #FFF; }
    }
  </style>
</svg>
